# xmcd
#
# Track frame offsets:
#	150
#	31420
#	51225
#	70569
#	88098
#	107768
#	134954
#	152486
#	166504
#	177478
#	193138
#	216715
#	232632
#	249833
#	267284
#	284961
#	306476
#	321507
#	336549
#
# Disc length: 4657 seconds
#
# Revision: 0
# Processed by: cddbd v1.5.2PL0 Copyright (c) Steve Scherf et al.
# Submitted via: dBpowerAMP V4.0
#
DISCID=29122f13
DTITLE=Various Artist - Big City Rhythm and Blues - Cadillac Blues Sampler CD #2
DYEAR=2007
DGENRE=Blues
TTITLE0=Roy Brown w/ The Hollywood Fats Band - Boogie Woogie Blues
TTITLE1=Sir Mack Rice - Cadillac Assembly Line
TTITLE2=Artie "Blues Boy" White - Package Deal
TTITLE3=Johnny Drummer - Rockin' In The Juke Joint
TTITLE4=Root Doctor - Hold On
TTITLE5=Family Style - Looking For A Woman
TTITLE6=Katfish Karr - State Of Emergency
TTITLE7=Patrick Vining - One Heartbeat
TTITLE8=Mikey Jr. - Whiskey By The Glass
TTITLE9=Randy McAllister - Take Me Out Of New Orleans
TTITLE10=Big G And The Magic Bullets - Life's Too Short To Be Me
TTITLE11=Corey Osborn - My Belair
TTITLE12=Little Johnny Blue - Strong-Hearted Woman
TTITLE13=Fat Harry and The Fuzzy Licks - Driving Machine
TTITLE14=Kevin Mark - So Blue Without You
TTITLE15=Howard Glazer - Walking In The Rain
TTITLE16=Jackie Payne/Steve Edmondson Band - Sweet Landlady
TTITLE17=Rusty Wright Band - Hang Dog
TTITLE18=Dennis Binder - I Don't Want Nobody Messing Around With Me
EXTD=
EXTT0=
EXTT1=
EXTT2=
EXTT3=
EXTT4=
EXTT5=
EXTT6=
EXTT7=
EXTT8=
EXTT9=
EXTT10=
EXTT11=
EXTT12=
EXTT13=
EXTT14=
EXTT15=
EXTT16=
EXTT17=
EXTT18=
PLAYORDER=
